<svg xmlns="http://www.w3.org/2000/svg" width="1600" height="500" viewBox="0 0 1600 500" role="img" aria-labelledby="title desc" data-version="5">
  <title id="title">Fabric Atlas</title>
  <desc id="desc">Open-source workspace intelligence for Microsoft Fabric, presented in the Fabric Atlas About page style.</desc>
  <defs>
    <linearGradient id="background" x1="0" y1="0" x2="1" y2="1">
      <stop offset="0" stop-color="#e8f4f0"/>
      <stop offset="0.52" stop-color="#ffffff"/>
      <stop offset="1" stop-color="#f7f0f8"/>
    </linearGradient>
    <linearGradient id="brand" x1="0" y1="0" x2="1" y2="1">
      <stop offset="0" stop-color="#742774"/>
      <stop offset="0.58" stop-color="#0078d4"/>
      <stop offset="1" stop-color="#117865"/>
    </linearGradient>
    <pattern id="grid" width="32" height="32" patternUnits="userSpaceOnUse">
      <path d="M32 0H0V32" fill="none" stroke="#d1d1d1" stroke-opacity="0.34"/>
    </pattern>
    <filter id="shadow4" x="-20%" y="-20%" width="140%" height="150%">
      <feDropShadow dx="0" dy="3" stdDeviation="4" flood-color="#000000" flood-opacity="0.15"/>
    </filter>
    <filter id="shadow8" x="-20%" y="-20%" width="140%" height="160%">
      <feDropShadow dx="0" dy="6" stdDeviation="8" flood-color="#000000" flood-opacity="0.15"/>
    </filter>
  </defs>

  <rect width="1600" height="500" fill="url(#background)"/>
  <rect width="1600" height="500" fill="url(#grid)" opacity="0.55"/>
  <circle cx="132" cy="86" r="190" fill="#117865" opacity="0.035"/>
  <circle cx="1480" cy="470" r="250" fill="#742774" opacity="0.045"/>

  <g font-family="Segoe UI, Arial, sans-serif">
    <g transform="translate(80 56)" font-size="12" font-weight="650">
      <g>
        <rect width="122" height="32" rx="16" fill="#f1faf1" stroke="#9fd89f"/>
        <circle cx="18" cy="16" r="4" fill="#0e700e"/>
        <text x="31" y="20" fill="#0e700e">OPEN SOURCE</text>
      </g>
      <g transform="translate(134)">
        <rect width="112" height="32" rx="16" fill="#ffffff" stroke="#d1d1d1"/>
        <text x="18" y="20" fill="#424242">MIT LICENSED</text>
      </g>
      <g transform="translate(258)">
        <rect width="124" height="32" rx="16" fill="#e3f7ef" stroke="#9ee0cb"/>
        <text x="18" y="20" fill="#0c695a">FABRIC NATIVE</text>
      </g>
    </g>

    <g transform="translate(80 126)">
      <rect width="78" height="78" rx="18" fill="url(#brand)" filter="url(#shadow4)"/>
      <path d="M39 16L60 28V52L39 64L18 52V28L39 16Z" fill="none" stroke="#ffffff" stroke-width="3"/>
      <path d="M29 48L35 31L52 27L46 44L29 48Z" fill="none" stroke="#ffffff" stroke-width="2.8" stroke-linejoin="round"/>
      <circle cx="40" cy="38" r="3.5" fill="#ffffff"/>
    </g>

    <text x="182" y="146" fill="#0c695a" font-size="13" font-weight="700" letter-spacing="1.5">MICROSOFT FABRIC GOVERNANCE</text>
    <text x="182" y="198" fill="#242424" font-size="58" font-weight="700" letter-spacing="-1.4">Fabric Atlas</text>
    <text x="80" y="270" fill="#242424" font-size="27" font-weight="500">Workspace intelligence for Microsoft Fabric.</text>
    <text x="80" y="310" fill="#616161" font-size="17">Catalog &#183; lineage &#183; governance &#183; access &#183; operations</text>

    <g transform="translate(80 354)">
      <g>
        <rect width="158" height="66" rx="10" fill="#ffffff" stroke="#e0e0e0" filter="url(#shadow4)"/>
        <rect x="14" y="14" width="38" height="38" rx="9" fill="#e3f7ef"/>
        <path d="M27 32H39M33 26V38" stroke="#117865" stroke-width="2.2" stroke-linecap="round"/>
        <text x="66" y="29" fill="#242424" font-size="13" font-weight="650">Govern</text>
        <text x="66" y="47" fill="#616161" font-size="11">Find and review</text>
      </g>
      <g transform="translate(170)">
        <rect width="158" height="66" rx="10" fill="#ffffff" stroke="#e0e0e0" filter="url(#shadow4)"/>
        <rect x="14" y="14" width="38" height="38" rx="9" fill="#f7eff8"/>
        <circle cx="25" cy="33" r="3.5" fill="#742774"/>
        <circle cx="41" cy="24" r="3.5" fill="#742774"/>
        <circle cx="41" cy="42" r="3.5" fill="#742774"/>
        <path d="M28 31L38 26M28 35L38 40" stroke="#742774" stroke-width="2"/>
        <text x="66" y="29" fill="#242424" font-size="13" font-weight="650">Map</text>
        <text x="66" y="47" fill="#616161" font-size="11">Trace impact</text>
      </g>
      <g transform="translate(340)">
        <rect width="158" height="66" rx="10" fill="#ffffff" stroke="#e0e0e0" filter="url(#shadow4)"/>
        <rect x="14" y="14" width="38" height="38" rx="9" fill="#eef6fc"/>
        <path d="M24 25H42V42H24ZM24 31H42M30 25V42" fill="none" stroke="#0078d4" stroke-width="1.8"/>
        <text x="66" y="29" fill="#242424" font-size="13" font-weight="650">Catalog</text>
        <text x="66" y="47" fill="#616161" font-size="11">Inspect metadata</text>
      </g>
      <g transform="translate(510)">
        <rect width="158" height="66" rx="10" fill="#ffffff" stroke="#e0e0e0" filter="url(#shadow4)"/>
        <rect x="14" y="14" width="38" height="38" rx="9" fill="#fffef5"/>
        <path d="M26 31V27A7 7 0 0 1 40 27V31M24 31H42V43H24Z" fill="none" stroke="#817400" stroke-width="1.8"/>
        <text x="66" y="29" fill="#242424" font-size="13" font-weight="650">Review</text>
        <text x="66" y="47" fill="#616161" font-size="11">Effective access</text>
      </g>
    </g>

    <g transform="translate(840 60)">
      <rect width="680" height="380" rx="18" fill="#ffffff" stroke="#d1d1d1" filter="url(#shadow8)"/>
      <rect width="680" height="56" rx="18" fill="#fafafa"/>
      <path d="M0 56H680" stroke="#e0e0e0"/>
      <circle cx="26" cy="28" r="5" fill="#bc2f32"/>
      <circle cx="44" cy="28" r="5" fill="#817400"/>
      <circle cx="62" cy="28" r="5" fill="#0e700e"/>
      <text x="84" y="33" fill="#616161" font-size="12">clone &amp; run</text>
      <rect x="610" y="14" width="44" height="28" rx="6" fill="#ffffff" stroke="#d1d1d1"/>
      <path d="M627 24H638V35H627ZM631 20H642V31" fill="none" stroke="#616161" stroke-width="1.5"/>

      <rect x="24" y="76" width="632" height="58" rx="10" fill="#f5f5f5" stroke="#e0e0e0"/>
      <text x="44" y="111" fill="#242424" font-family="Consolas, monospace" font-size="15">git clone https://github.com/fredgis/FabricAtlas.git</text>

      <g transform="translate(24 154)">
        <g>
          <rect width="302" height="84" rx="10" fill="#ffffff" stroke="#e0e0e0"/>
          <rect x="14" y="14" width="42" height="42" rx="10" fill="#e3f7ef"/>
          <path d="M26 25H44V43H26ZM31 30H39M31 35H39M31 40H36" fill="none" stroke="#117865" stroke-width="1.8" stroke-linecap="round"/>
          <text x="72" y="31" fill="#242424" font-size="14" font-weight="650">Governance Center</text>
          <text x="72" y="51" fill="#616161" font-size="11">Findings, changes and coverage</text>
          <text x="72" y="68" fill="#0c695a" font-size="10" font-weight="650">ACTIONABLE METADATA</text>
        </g>
        <g transform="translate(330)">
          <rect width="302" height="84" rx="10" fill="#ffffff" stroke="#e0e0e0"/>
          <rect x="14" y="14" width="42" height="42" rx="10" fill="#f7eff8"/>
          <circle cx="27" cy="35" r="3.5" fill="#742774"/>
          <circle cx="43" cy="27" r="3.5" fill="#742774"/>
          <circle cx="43" cy="43" r="3.5" fill="#742774"/>
          <path d="M30 33L40 29M30 37L40 41" stroke="#742774" stroke-width="2"/>
          <text x="72" y="31" fill="#242424" font-size="14" font-weight="650">Map &amp; lineage</text>
          <text x="72" y="51" fill="#616161" font-size="11">Verified upstream and downstream paths</text>
          <text x="72" y="68" fill="#742774" font-size="10" font-weight="650">IMPACT AWARE</text>
        </g>
      </g>

      <g transform="translate(24 252)">
        <g>
          <rect width="302" height="84" rx="10" fill="#ffffff" stroke="#e0e0e0"/>
          <rect x="14" y="14" width="42" height="42" rx="10" fill="#eef6fc"/>
          <path d="M25 25H45V45H25ZM25 32H45M32 25V45" fill="none" stroke="#0078d4" stroke-width="1.8"/>
          <text x="72" y="31" fill="#242424" font-size="14" font-weight="650">Asset Catalog</text>
          <text x="72" y="51" fill="#616161" font-size="11">Tables, columns and measures</text>
          <text x="72" y="68" fill="#005a9e" font-size="10" font-weight="650">DEEP INVENTORY</text>
        </g>
        <g transform="translate(330)">
          <rect width="302" height="84" rx="10" fill="#ffffff" stroke="#e0e0e0"/>
          <rect x="14" y="14" width="42" height="42" rx="10" fill="#fffef5"/>
          <path d="M28 33V29A7 7 0 0 1 42 29V33M26 33H44V46H26Z" fill="none" stroke="#817400" stroke-width="1.8"/>
          <text x="72" y="31" fill="#242424" font-size="14" font-weight="650">Access Review</text>
          <text x="72" y="51" fill="#616161" font-size="11">Additive permissions and evidence</text>
          <text x="72" y="68" fill="#6c5700" font-size="10" font-weight="650">REVIEW READY</text>
        </g>
      </g>

      <g transform="translate(24 350)">
        <circle cx="8" cy="8" r="5" fill="#0e700e"/>
        <text x="22" y="12" fill="#424242" font-size="11" font-weight="600">Metadata only</text>
        <text x="124" y="12" fill="#bdbdbd" font-size="11">&#183;</text>
        <text x="140" y="12" fill="#424242" font-size="11" font-weight="600">Deployed in Fabric</text>
        <text x="258" y="12" fill="#bdbdbd" font-size="11">&#183;</text>
        <text x="274" y="12" fill="#424242" font-size="11" font-weight="600">Built with React and Rayfin</text>
      </g>
    </g>
  </g>
</svg>
