<?xml version="1.0" encoding="utf-8"?>
<!-- Generator: Adobe Illustrator 28.3.0, SVG Export Plug-In . SVG Version: 6.00 Build 0)  -->
<svg version="1.1" id="Layer_1" xmlns="http://www.w3.org/2000/svg" xmlns:xlink="http://www.w3.org/1999/xlink" x="0px" y="0px"
	 viewBox="0 0 357.7 315.1" style="enable-background:new 0 0 357.7 315.1;" xml:space="preserve">
<style type="text/css">
	.st0{fill:url(#SVGID_1_);}
	.st1{fill:url(#SVGID_00000032633073058829615800000007252806967888721830_);}
	.st2{fill:url(#SVGID_00000070076875286490934940000000791023129155920319_);}
	.st3{fill:url(#SVGID_00000102528592593732987280000018295378546721586367_);}
	.st4{fill:url(#SVGID_00000160176089781747345060000007634187136087883392_);}
</style>
<linearGradient id="SVGID_1_" gradientUnits="userSpaceOnUse" x1="45.4199" y1="132.2649" x2="264.5254" y2="181.2059">
	<stop  offset="1.033984e-06" style="stop-color:#198F7C"/>
	<stop  offset="1" style="stop-color:#002C29"/>
</linearGradient>
<path class="st0" d="M272.7,76.7L138.3,96.8c-4.2,0.6-8.4,0.9-12.6,0.8c-25.1-1-43.7-15.9-47-39L35.1,221.3
	c-2.8,10.4,6,20.3,16.7,18.7l187.6-28c11.8-1.8,21.5-10.4,24.5-21.9l25.4-94.6C292.2,85,283.4,75.2,272.7,76.7z"/>
<linearGradient id="SVGID_00000108303264534380300140000012853842655654888868_" gradientUnits="userSpaceOnUse" x1="100.4253" y1="128.8586" x2="318.0249" y2="187.9643">
	<stop  offset="1.033984e-06" style="stop-color:#63E9CB"/>
	<stop  offset="1" style="stop-color:#B5D77A"/>
</linearGradient>
<path style="fill:url(#SVGID_00000108303264534380300140000012853842655654888868_);" d="M336.5,58.7
	c-17.3,23.9-33.2,34.1-63.5,40.1l-169.9,25.4c-5.9,0.9-10.7,5.2-12.3,10.9L63.3,237.6c-2.8,10.4,6,20.3,16.7,18.7l192.7-28.8
	c11.8-1.8,21.5-10.4,24.5-21.9L336.5,58.7z"/>
<g>
	
		<linearGradient id="SVGID_00000160907585236013699370000015054849312368122807_" gradientUnits="userSpaceOnUse" x1="30.2895" y1="200.0025" x2="249.395" y2="248.9436">
		<stop  offset="1.033984e-06" style="stop-color:#198F7C"/>
		<stop  offset="1" style="stop-color:#002C29"/>
	</linearGradient>
	<path style="fill:url(#SVGID_00000160907585236013699370000015054849312368122807_);" d="M86.1,231.3l5.7-21.2l47.3-7.1
		c1.8-0.3,3.3,1.4,2.8,3.1l-4.8,18.1c-0.5,1.9-2.1,3.4-4.1,3.7l-44.1,6.6C87.1,234.7,85.7,233.1,86.1,231.3z"/>
</g>
<g>
	
		<linearGradient id="SVGID_00000093891658253599076000000013307719726576084131_" gradientUnits="userSpaceOnUse" x1="38.362" y1="163.8626" x2="257.4675" y2="212.8037">
		<stop  offset="1.033984e-06" style="stop-color:#198F7C"/>
		<stop  offset="1" style="stop-color:#002C29"/>
	</linearGradient>
	<path style="fill:url(#SVGID_00000093891658253599076000000013307719726576084131_);" d="M93.7,203.2l6.7-24.8l73.9-11
		c1.8-0.3,3.3,1.4,2.8,3.1l-4.8,18c-0.5,1.9-2.1,3.4-4.1,3.7L93.7,203.2z"/>
</g>
<g>
	
		<linearGradient id="SVGID_00000127011043028889787630000017071525573816538264_" gradientUnits="userSpaceOnUse" x1="46.312" y1="128.2714" x2="265.4174" y2="177.2125">
		<stop  offset="1.033984e-06" style="stop-color:#198F7C"/>
		<stop  offset="1" style="stop-color:#002C29"/>
	</linearGradient>
	<path style="fill:url(#SVGID_00000127011043028889787630000017071525573816538264_);" d="M107.7,150.9l-5.8,21.6l100.3-15
		c2-0.3,3.6-1.7,4.1-3.7l4.8-18c0.5-1.7-1-3.4-2.8-3.1l-96.5,14.4C109.8,147.5,108.2,148.9,107.7,150.9z"/>
</g>
</svg>
