<svg width="145" height="154" viewBox="0 0 145 154" fill="none" xmlns="http://www.w3.org/2000/svg">
<mask id="mask0_18_30678" style="mask-type:luminance" maskUnits="userSpaceOnUse" x="12" y="12" width="121" height="130">
<path d="M132.917 12.8335H12.0833V141.167H132.917V12.8335Z" fill="white"/>
</mask>
<g mask="url(#mask0_18_30678)">
<path fill-rule="evenodd" clip-rule="evenodd" d="M17.0375 101.384L15.2673 108.259C14.6088 110.46 13.6844 113.691 13.1859 116.569C12.2677 119.143 11.9159 121.907 12.1573 124.648C12.3988 127.389 13.2271 130.035 14.579 132.384C15.9309 134.733 17.7706 136.723 19.9574 138.201C22.1443 139.68 24.6204 140.607 27.1966 140.913C29.5891 141.279 32.2957 141.263 35.3287 140.788L49.2638 138.745C50.9782 138.493 52.5854 137.712 53.8856 136.499C55.1858 135.286 56.1217 133.694 56.5772 131.92L66.1683 94.5049L17.0375 101.384Z" fill="url(#paint0_linear_18_30678)"/>
<path d="M30.6313 103.155C15.9409 105.57 12.9261 117.342 12.9261 117.342L26.9942 62.4473L100.497 51.8887L90.474 90.5555C90.2152 91.5812 89.681 92.5047 88.9365 93.2135C88.1919 93.9222 87.2693 94.3854 86.2811 94.5467L85.8702 94.6173L30.2174 103.228L30.6313 103.155Z" fill="url(#paint1_linear_18_30678)"/>
<path d="M30.6313 103.155C15.9409 105.57 12.9261 117.342 12.9261 117.342L26.9942 62.4473L100.497 51.8887L90.474 90.5555C90.2152 91.5812 89.681 92.5047 88.9365 93.2135C88.1919 93.9222 87.2693 94.3854 86.2811 94.5467L85.8702 94.6173L30.2174 103.228L30.6313 103.155Z" fill="url(#paint2_linear_18_30678)" fill-opacity="0.8"/>
<path d="M38.9657 68.1292L120.341 55.3633C121.281 55.2244 122.161 54.7942 122.872 54.1266C123.583 53.4589 124.093 52.5833 124.338 51.6095L132.735 19.3241C132.949 18.5105 132.969 17.6535 132.795 16.8295C132.621 16.0055 132.257 15.24 131.737 14.6015C131.216 13.963 130.555 13.4712 129.812 13.17C129.069 12.8688 128.268 12.7676 127.479 12.8753L49.8347 25.067C45.7287 25.7755 41.9009 27.7222 38.807 30.6754C35.7131 33.6286 33.4834 37.4639 32.3833 41.7247L21.1851 84.8254C23.4326 76.1052 24.8162 70.8499 38.9657 68.1292Z" fill="url(#paint3_linear_18_30678)"/>
<path d="M38.9657 68.1292L120.341 55.3633C121.281 55.2244 122.161 54.7942 122.872 54.1266C123.583 53.4589 124.093 52.5833 124.338 51.6095L132.735 19.3241C132.949 18.5105 132.969 17.6535 132.795 16.8295C132.621 16.0055 132.257 15.24 131.737 14.6015C131.216 13.963 130.555 13.4712 129.812 13.17C129.069 12.8688 128.268 12.7676 127.479 12.8753L49.8347 25.067C45.7287 25.7755 41.9009 27.7222 38.807 30.6754C35.7131 33.6286 33.4834 37.4639 32.3833 41.7247L21.1851 84.8254C23.4326 76.1052 24.8162 70.8499 38.9657 68.1292Z" fill="url(#paint4_linear_18_30678)"/>
<path d="M38.9657 68.1292L120.341 55.3633C121.281 55.2244 122.161 54.7942 122.872 54.1266C123.583 53.4589 124.093 52.5833 124.338 51.6095L132.735 19.3241C132.949 18.5105 132.969 17.6535 132.795 16.8295C132.621 16.0055 132.257 15.24 131.737 14.6015C131.216 13.963 130.555 13.4712 129.812 13.17C129.069 12.8688 128.268 12.7676 127.479 12.8753L49.8347 25.067C45.7287 25.7755 41.9009 27.7222 38.807 30.6754C35.7131 33.6286 33.4834 37.4639 32.3833 41.7247L21.1851 84.8254C23.4326 76.1052 24.8162 70.8499 38.9657 68.1292Z" fill="url(#paint5_linear_18_30678)" fill-opacity="0.4"/>
<path d="M38.9657 68.1324C27.1815 70.3974 24.2543 74.4271 22.3089 80.7475L12.9261 117.351C12.9261 117.351 15.9228 105.696 30.4349 103.203L85.8732 94.6268L86.2841 94.5562C87.272 94.3942 88.1943 93.9306 88.9387 93.2221C89.6831 92.5135 90.2176 91.5903 90.477 90.565L98.7239 58.7544L38.9657 68.1324Z" fill="url(#paint6_linear_18_30678)"/>
<path d="M38.9657 68.1324C27.1815 70.3974 24.2543 74.4271 22.3089 80.7475L12.9261 117.351C12.9261 117.351 15.9228 105.696 30.4349 103.203L85.8732 94.6268L86.2841 94.5562C87.272 94.3942 88.1943 93.9306 88.9387 93.2221C89.6831 92.5135 90.2176 91.5903 90.477 90.565L98.7239 58.7544L38.9657 68.1324Z" fill="url(#paint7_linear_18_30678)" fill-opacity="0.2"/>
<path fill-rule="evenodd" clip-rule="evenodd" d="M30.4349 103.206C18.1703 105.311 14.1435 113.938 13.1859 116.565C12.2666 119.14 11.9139 121.905 12.1547 124.647C12.3956 127.389 13.2237 130.036 14.5758 132.386C15.9278 134.735 17.7679 136.726 19.9553 138.204C22.1428 139.683 24.6197 140.611 27.1966 140.917C29.5891 141.282 32.2957 141.263 35.3287 140.788L49.2638 138.748C50.9782 138.496 52.5853 137.716 53.8855 136.502C55.1857 135.289 56.1217 133.697 56.5772 131.924L65.3195 97.8096L30.4379 103.209L30.4349 103.206Z" fill="url(#paint8_linear_18_30678)"/>
</g>
<defs>
<linearGradient id="paint0_linear_18_30678" x1="39.1289" y1="141.17" x2="39.1289" y2="94.5081" gradientUnits="userSpaceOnUse">
<stop offset="0.056" stop-color="#2AAC94"/>
<stop offset="0.155" stop-color="#239C87"/>
<stop offset="0.372" stop-color="#177E71"/>
<stop offset="0.588" stop-color="#0E6961"/>
<stop offset="0.799" stop-color="#095D57"/>
<stop offset="1" stop-color="#085954"/>
</linearGradient>
<linearGradient id="paint1_linear_18_30678" x1="94.6457" y1="107.313" x2="49.4386" y2="61.0197" gradientUnits="userSpaceOnUse">
<stop offset="0.042" stop-color="#ABE88E"/>
<stop offset="0.549" stop-color="#2AAA92"/>
<stop offset="0.906" stop-color="#117865"/>
</linearGradient>
<linearGradient id="paint2_linear_18_30678" x1="-9.61229" y1="104.929" x2="31.244" y2="91.8124" gradientUnits="userSpaceOnUse">
<stop stop-color="#6AD6F9"/>
<stop offset="1" stop-color="#6AD6F9" stop-opacity="0"/>
</linearGradient>
<linearGradient id="paint3_linear_18_30678" x1="21.1851" y1="48.8279" x2="128.654" y2="48.8279" gradientUnits="userSpaceOnUse">
<stop offset="0.043" stop-color="#25FFD4"/>
<stop offset="0.874" stop-color="#55DDB9"/>
</linearGradient>
<linearGradient id="paint4_linear_18_30678" x1="21.1851" y1="32.8761" x2="119.982" y2="76.0713" gradientUnits="userSpaceOnUse">
<stop stop-color="#6AD6F9"/>
<stop offset="0.23" stop-color="#60E9D0"/>
<stop offset="0.651" stop-color="#6DE9BB"/>
<stop offset="0.994" stop-color="#ABE88E"/>
</linearGradient>
<linearGradient id="paint5_linear_18_30678" x1="30.1419" y1="41.8081" x2="83.0631" y2="52.8312" gradientUnits="userSpaceOnUse">
<stop stop-color="white" stop-opacity="0"/>
<stop offset="0.459" stop-color="white"/>
<stop offset="1" stop-color="white" stop-opacity="0"/>
</linearGradient>
<linearGradient id="paint6_linear_18_30678" x1="47.5963" y1="89.7052" x2="48.9999" y2="50.5051" gradientUnits="userSpaceOnUse">
<stop offset="0.205" stop-color="#063D3B" stop-opacity="0"/>
<stop offset="0.586" stop-color="#063D3B" stop-opacity="0.237"/>
<stop offset="0.872" stop-color="#063D3B" stop-opacity="0.75"/>
</linearGradient>
<linearGradient id="paint7_linear_18_30678" x1="8.48854" y1="85.8039" x2="53.6469" y2="93.8017" gradientUnits="userSpaceOnUse">
<stop stop-color="white" stop-opacity="0"/>
<stop offset="0.459" stop-color="white"/>
<stop offset="1" stop-color="white" stop-opacity="0"/>
</linearGradient>
<linearGradient id="paint8_linear_18_30678" x1="40.9837" y1="128.241" x2="31.1355" y2="82.896" gradientUnits="userSpaceOnUse">
<stop offset="0.064" stop-color="#063D3B" stop-opacity="0"/>
<stop offset="0.17" stop-color="#063D3B" stop-opacity="0.135"/>
<stop offset="0.562" stop-color="#063D3B" stop-opacity="0.599"/>
<stop offset="0.85" stop-color="#063D3B" stop-opacity="0.9"/>
<stop offset="1" stop-color="#063D3B"/>
</linearGradient>
</defs>
</svg>
