<svg width="604" height="604" xmlns="http://www.w3.org/2000/svg" xmlns:xlink="http://www.w3.org/1999/xlink" xml:space="preserve" overflow="hidden"><defs><clipPath id="clip0"><rect x="2807" y="814" width="604" height="604"/></clipPath><linearGradient x1="2807" y1="1418" x2="3411" y2="814" gradientUnits="userSpaceOnUse" spreadMethod="reflect" id="fill1"><stop offset="0" stop-color="#0B5852"/><stop offset="0.34" stop-color="#1A8576"/><stop offset="0.61" stop-color="#4FB389"/><stop offset="1" stop-color="#6CE9BC"/></linearGradient></defs><g clip-path="url(#clip0)" transform="translate(-2807 -814)"><path d="M2871.22 1377.94C2865.94 1383.22 2859.15 1384.73 2852.36 1381.71 2845.56 1378.7 2841.79 1372.66 2841.79 1365.87 2841.79 1359.08 2846.32 1352.29 2852.36 1350.03 2859.15 1347.01 2865.94 1348.52 2871.22 1353.8 2878.02 1359.84 2878.02 1371.15 2871.22 1377.94ZM3404.01 880.813 3342.88 941.917 3294.59 929.092 3282.51 881.567 3343.64 820.464C3307.42 806.885 3266.66 815.183 3237.99 840.831 3209.31 867.234 3197.99 906.461 3207.8 944.18L2822.92 1328.91C2809.34 1341.73 2804.06 1361.35 2808.59 1379.45 2813.11 1397.55 2827.45 1411.89 2845.56 1416.41 2863.68 1420.94 2882.54 1415.66 2896.13 1402.08L3281 1017.35C3318.74 1027.16 3357.98 1015.84 3384.39 987.179 3410.05 958.513 3418.35 917.022 3404.01 880.813Z" fill="url(#fill1)" fill-rule="evenodd"/></g></svg>